<svg xmlns="http://www.w3.org/2000/svg" width="100" height="20" viewBox="0 0 100 20"><g fill="#690D94"><path d="M0 13.852V.359h6.746c1.854 0 3.445.658 4.772 1.985 1.328 1.328 1.986 2.919 1.986 4.773s-.658 3.445-1.986 4.761c-1.327 1.315-2.918 1.974-4.772 1.974H3.863v5.789H0v-5.789zm6.746-3.84c.802 0 1.483-.288 2.046-.85.562-.563.85-1.244.85-2.045 0-.79-.288-1.471-.85-2.045a2.76 2.76 0 0 0-2.046-.862H3.863V10l2.883.012zM42.048.359V4.21h-7.704v3.863h7.704v3.852h-7.704v3.852h7.704v3.863H30.482V.359h11.566zM52.024 20L43.364.359h4.078l4.57 10.515L56.58.359h4.127L52.024 20zM62.145.359h3.863v19.282h-3.863V.359zM79.099 11.017V.359h3.863V20L71.396 8.971V19.64h-3.863V0l11.566 11.017zM100 .359v11.627c0 2.141-.754 3.971-2.271 5.49-1.52 1.519-3.35 2.271-5.48 2.271-2.141 0-3.971-.753-5.49-2.271-1.518-1.52-2.271-3.35-2.271-5.49V.359h3.887V11.974c0 1.065.383 1.974 1.137 2.728s1.662 1.137 2.727 1.137c1.053 0 1.961-.383 2.729-1.137.766-.754 1.146-1.662 1.146-2.728V.359H100zM23.973 19.641h4.713l-4.354-6.71c1.269-.478 1.949-.813 2.763-1.962.813-1.148 1.222-2.201 1.222-3.636v-.599c0-1.854-.54-3.098-1.867-4.426C25.123.981 23.293.334 21.437.334H15.17l.011 19.306h3.864v-6.71h.539l4.389 6.711zM19.032 4.186h2.165c.802 0 1.805.204 2.368.778.563.574.766 1.101.766 1.89 0 .801-.203 1.447-.766 2.01-.486.486-.857.704-1.47.753h-3.063V4.186z"/></g></svg>